{
	"header": {
		"keySignatures": [],
		"meta": [],
		"name": "",
		"ppq": 43,
		"tempos": [
			{
				"bpm": 120,
				"ticks": 0
			}
		],
		"timeSignatures": []
	},
	"tracks": [
		{
			"channel": 0,
			"controlChanges": {},
			"pitchBends": [],
			"instrument": {
				"family": "piano",
				"name": "acoustic grand piano",
				"number": 0
			},
			"name": "",
			"notes": [
				{
					"duration": 4.406976744186046,
					"durationTicks": 379,
					"midi": 90,
					"name": "F#6",
					"ticks": 0,
					"time": 0,
					"velocity": 0.7716535433070866
				},
				{
					"duration": 0.06976744186046513,
					"durationTicks": 6,
					"midi": 74,
					"name": "D5",
					"ticks": 1,
					"time": 0.011627906976744186,
					"velocity": 0.15748031496062992
				},
				{
					"duration": 0.26744186046511625,
					"durationTicks": 23,
					"midi": 98,
					"name": "D7",
					"ticks": 3,
					"time": 0.03488372093023256,
					"velocity": 0.18110236220472442
				},
				{
					"duration": 0.08139534883720931,
					"durationTicks": 7,
					"midi": 74,
					"name": "D5",
					"ticks": 12,
					"time": 0.13953488372093023,
					"velocity": 0.15748031496062992
				},
				{
					"duration": 0.06976744186046513,
					"durationTicks": 6,
					"midi": 74,
					"name": "D5",
					"ticks": 24,
					"time": 0.27906976744186046,
					"velocity": 0.15748031496062992
				},
				{
					"duration": 0.09302325581395349,
					"durationTicks": 8,
					"midi": 74,
					"name": "D5",
					"ticks": 34,
					"time": 0.3953488372093023,
					"velocity": 0.13385826771653545
				},
				{
					"duration": 0.19767441860465124,
					"durationTicks": 17,
					"midi": 98,
					"name": "D7",
					"ticks": 39,
					"time": 0.45348837209302323,
					"velocity": 0.18110236220472442
				},
				{
					"duration": 0.08139534883720934,
					"durationTicks": 7,
					"midi": 74,
					"name": "D5",
					"ticks": 46,
					"time": 0.5348837209302325,
					"velocity": 0.12598425196850394
				},
				{
					"duration": 0.09302325581395354,
					"durationTicks": 8,
					"midi": 74,
					"name": "D5",
					"ticks": 57,
					"time": 0.6627906976744186,
					"velocity": 0.11811023622047244
				},
				{
					"duration": 0.09302325581395354,
					"durationTicks": 8,
					"midi": 74,
					"name": "D5",
					"ticks": 68,
					"time": 0.7906976744186046,
					"velocity": 0.13385826771653545
				},
				{
					"duration": 0.1976744186046513,
					"durationTicks": 17,
					"midi": 98,
					"name": "D7",
					"ticks": 74,
					"time": 0.8604651162790697,
					"velocity": 0.1968503937007874
				},
				{
					"duration": 0.08139534883720934,
					"durationTicks": 7,
					"midi": 74,
					"name": "D5",
					"ticks": 80,
					"time": 0.9302325581395349,
					"velocity": 0.14960629921259844
				},
				{
					"duration": 0.08139534883720922,
					"durationTicks": 7,
					"midi": 74,
					"name": "D5",
					"ticks": 91,
					"time": 1.058139534883721,
					"velocity": 0.14960629921259844
				},
				{
					"duration": 0.058139534883721034,
					"durationTicks": 5,
					"midi": 74,
					"name": "D5",
					"ticks": 103,
					"time": 1.197674418604651,
					"velocity": 0.15748031496062992
				},
				{
					"duration": 0.19767441860465107,
					"durationTicks": 17,
					"midi": 98,
					"name": "D7",
					"ticks": 109,
					"time": 1.2674418604651163,
					"velocity": 0.18110236220472442
				},
				{
					"duration": 0.08139534883720945,
					"durationTicks": 7,
					"midi": 74,
					"name": "D5",
					"ticks": 113,
					"time": 1.313953488372093,
					"velocity": 0.15748031496062992
				},
				{
					"duration": 0.06976744186046524,
					"durationTicks": 6,
					"midi": 74,
					"name": "D5",
					"ticks": 125,
					"time": 1.4534883720930232,
					"velocity": 0.15748031496062992
				},
				{
					"duration": 0.08139534883720945,
					"durationTicks": 7,
					"midi": 74,
					"name": "D5",
					"ticks": 136,
					"time": 1.5813953488372092,
					"velocity": 0.14173228346456693
				},
				{
					"duration": 0.19767441860465107,
					"durationTicks": 17,
					"midi": 98,
					"name": "D7",
					"ticks": 145,
					"time": 1.686046511627907,
					"velocity": 0.1968503937007874
				},
				{
					"duration": 0.09302325581395365,
					"durationTicks": 8,
					"midi": 74,
					"name": "D5",
					"ticks": 146,
					"time": 1.697674418604651,
					"velocity": 0.11811023622047244
				},
				{
					"duration": 0.08139534883720945,
					"durationTicks": 7,
					"midi": 74,
					"name": "D5",
					"ticks": 158,
					"time": 1.8372093023255813,
					"velocity": 0.11811023622047244
				},
				{
					"duration": 0.10465116279069786,
					"durationTicks": 9,
					"midi": 74,
					"name": "D5",
					"ticks": 168,
					"time": 1.9534883720930232,
					"velocity": 0.14173228346456693
				},
				{
					"duration": 0.2558139534883721,
					"durationTicks": 22,
					"midi": 98,
					"name": "D7",
					"ticks": 175,
					"time": 2.0348837209302326,
					"velocity": 0.18110236220472442
				},
				{
					"duration": 0.09302325581395321,
					"durationTicks": 8,
					"midi": 74,
					"name": "D5",
					"ticks": 180,
					"time": 2.0930232558139537,
					"velocity": 0.14960629921259844
				},
				{
					"duration": 0.06976744186046524,
					"durationTicks": 6,
					"midi": 74,
					"name": "D5",
					"ticks": 192,
					"time": 2.2325581395348837,
					"velocity": 0.15748031496062992
				},
				{
					"duration": 0.081395348837209,
					"durationTicks": 7,
					"midi": 74,
					"name": "D5",
					"ticks": 203,
					"time": 2.36046511627907,
					"velocity": 0.16535433070866143
				},
				{
					"duration": 0.04651162790697638,
					"durationTicks": 4,
					"midi": 98,
					"name": "D7",
					"ticks": 204,
					"time": 2.372093023255814,
					"velocity": 0.11023622047244094
				},
				{
					"duration": 0.20930232558139528,
					"durationTicks": 18,
					"midi": 98,
					"name": "D7",
					"ticks": 210,
					"time": 2.441860465116279,
					"velocity": 0.18110236220472442
				},
				{
					"duration": 0.06976744186046524,
					"durationTicks": 6,
					"midi": 74,
					"name": "D5",
					"ticks": 215,
					"time": 2.5,
					"velocity": 0.16535433070866143
				},
				{
					"duration": 0.08139534883720945,
					"durationTicks": 7,
					"midi": 74,
					"name": "D5",
					"ticks": 226,
					"time": 2.627906976744186,
					"velocity": 0.16535433070866143
				},
				{
					"duration": 0.06976744186046524,
					"durationTicks": 6,
					"midi": 74,
					"name": "D5",
					"ticks": 238,
					"time": 2.7674418604651163,
					"velocity": 0.15748031496062992
				},
				{
					"duration": 0.2674418604651163,
					"durationTicks": 23,
					"midi": 98,
					"name": "D7",
					"ticks": 240,
					"time": 2.7906976744186047,
					"velocity": 0.16535433070866143
				},
				{
					"duration": 0.08139534883720945,
					"durationTicks": 7,
					"midi": 74,
					"name": "D5",
					"ticks": 249,
					"time": 2.895348837209302,
					"velocity": 0.14173228346456693
				},
				{
					"duration": 0.09302325581395365,
					"durationTicks": 8,
					"midi": 74,
					"name": "D5",
					"ticks": 259,
					"time": 3.011627906976744,
					"velocity": 0.13385826771653545
				},
				{
					"duration": 0.10465116279069786,
					"durationTicks": 9,
					"midi": 74,
					"name": "D5",
					"ticks": 270,
					"time": 3.13953488372093,
					"velocity": 0.13385826771653545
				},
				{
					"duration": 0.2674418604651163,
					"durationTicks": 23,
					"midi": 98,
					"name": "D7",
					"ticks": 275,
					"time": 3.197674418604651,
					"velocity": 0.16535433070866143
				},
				{
					"duration": 0.09302325581395365,
					"durationTicks": 8,
					"midi": 74,
					"name": "D5",
					"ticks": 282,
					"time": 3.2790697674418605,
					"velocity": 0.14173228346456693
				},
				{
					"duration": 0.09302325581395365,
					"durationTicks": 8,
					"midi": 74,
					"name": "D5",
					"ticks": 293,
					"time": 3.4069767441860463,
					"velocity": 0.14173228346456693
				},
				{
					"duration": 0.081395348837209,
					"durationTicks": 7,
					"midi": 74,
					"name": "D5",
					"ticks": 305,
					"time": 3.546511627906977,
					"velocity": 0.15748031496062992
				},
				{
					"duration": 0.2674418604651163,
					"durationTicks": 23,
					"midi": 98,
					"name": "D7",
					"ticks": 310,
					"time": 3.604651162790698,
					"velocity": 0.1732283464566929
				},
				{
					"duration": 0.08139534883720945,
					"durationTicks": 7,
					"midi": 74,
					"name": "D5",
					"ticks": 316,
					"time": 3.6744186046511627,
					"velocity": 0.16535433070866143
				},
				{
					"duration": 0.0697674418604648,
					"durationTicks": 6,
					"midi": 74,
					"name": "D5",
					"ticks": 328,
					"time": 3.813953488372093,
					"velocity": 0.16535433070866143
				},
				{
					"duration": 0.06976744186046524,
					"durationTicks": 6,
					"midi": 74,
					"name": "D5",
					"ticks": 340,
					"time": 3.953488372093023,
					"velocity": 0.16535433070866143
				},
				{
					"duration": 0.03488372093023262,
					"durationTicks": 3,
					"midi": 98,
					"name": "D7",
					"ticks": 340,
					"time": 3.953488372093023,
					"velocity": 0.09448818897637795
				},
				{
					"duration": 0.20930232558139572,
					"durationTicks": 18,
					"midi": 98,
					"name": "D7",
					"ticks": 345,
					"time": 4.011627906976744,
					"velocity": 0.1732283464566929
				},
				{
					"duration": 0.08139534883720945,
					"durationTicks": 7,
					"midi": 74,
					"name": "D5",
					"ticks": 351,
					"time": 4.0813953488372094,
					"velocity": 0.16535433070866143
				},
				{
					"duration": 0.06976744186046435,
					"durationTicks": 6,
					"midi": 74,
					"name": "D5",
					"ticks": 363,
					"time": 4.22093023255814,
					"velocity": 0.14960629921259844
				},
				{
					"duration": 0.03488372093023173,
					"durationTicks": 3,
					"midi": 98,
					"name": "D7",
					"ticks": 365,
					"time": 4.244186046511628,
					"velocity": 0.11023622047244094
				}
			]
		}
	]
}